# MagicaVoxel @ Ephtracy

# group
o 

# material
mtllib cars.mtl
usemtl palette

# normals
vn -1 0 0
vn 1 0 0
vn 0 0 1
vn 0 0 -1
vn 0 -1 0
vn 0 1 0

# texcoords
vt 0.943359 0.5
vt 0.947266 0.5
vt 0.970703 0.5
vt 0.974609 0.5

# verts
v -0.6 0.1 0.3
v -0.6 0.1 -0.4
v -0.6 0.2 0.3
v -0.6 0.2 0.2
v -0.6 0.2 -0.3
v -0.6 0.2 -0.4
v -0.6 0.3 0.3
v -0.6 0.3 0.2
v -0.6 0.3 -0.3
v -0.6 0.3 -0.4
v -0.5 0 0.2
v -0.5 0 -0.3
v -0.5 0.1 0.2
v -0.5 0.1 -0.3
v -0.4 0 0.3
v -0.4 0 0.2
v -0.4 0 -0.3
v -0.4 0 -0.4
v -0.4 0.1 0.3
v -0.4 0.1 0.2
v -0.4 0.1 -0.3
v -0.4 0.1 -0.4
v -0.1 0.3 0.3
v -0.1 0.3 0.2
v -0.1 0.3 -0.3
v -0.1 0.3 -0.4
v -0.1 0.5 0.2
v -0.1 0.5 -0.3
v -0.1 0.6 0.3
v -0.1 0.6 -0.4
v 0.3 0 0.3
v 0.3 0 0.2
v 0.3 0 -0.3
v 0.3 0 -0.4
v 0.3 0.1 0.3
v 0.3 0.1 0.2
v 0.3 0.1 -0.3
v 0.3 0.1 -0.4
v -0.2 0 0.3
v -0.2 0 0.2
v -0.2 0 -0.3
v -0.2 0 -0.4
v -0.2 0.1 0.3
v -0.2 0.1 0.2
v -0.2 0.1 -0.3
v -0.2 0.1 -0.4
v 0.4 0.5 0.3
v 0.4 0.5 0.1
v 0.4 0.5 -0.2
v 0.4 0.5 -0.4
v 0.4 0.6 0.3
v 0.4 0.6 -0.4
v 0.5 0 0.3
v 0.5 0 0.2
v 0.5 0 -0.3
v 0.5 0 -0.4
v 0.5 0.1 0.3
v 0.5 0.1 0.2
v 0.5 0.1 -0.3
v 0.5 0.1 -0.4
v 0.5 0.4 0.3
v 0.5 0.4 0.1
v 0.5 0.4 -0.2
v 0.5 0.4 -0.4
v 0.5 0.5 0.3
v 0.5 0.5 0.1
v 0.5 0.5 -0.2
v 0.5 0.5 -0.4
v 0.6 0 0.2
v 0.6 0 -0.3
v 0.6 0.1 0.2
v 0.6 0.1 -0.3
v 0.7 0.1 0.3
v 0.7 0.1 -0.4
v 0.7 0.2 0.2
v 0.7 0.2 0.1
v 0.7 0.2 -0.2
v 0.7 0.2 -0.3
v 0.7 0.3 0.2
v 0.7 0.3 0.1
v 0.7 0.3 -0.2
v 0.7 0.3 -0.3
v 0.7 0.4 0.3
v 0.7 0.4 -0.4
v -0.6 0.1 0.3
v -0.6 0.2 0.3
v -0.6 0.3 0.3
v -0.5 0.2 0.3
v -0.5 0.3 0.3
v -0.4 0 0.3
v -0.4 0.1 0.3
v -0.4 0.2 0.3
v -0.2 0 0.3
v -0.2 0.1 0.3
v -0.2 0.2 0.3
v -0.1 0.3 0.3
v -0.1 0.6 0.3
v -5.96046e-08 0.3 0.3
v -5.96046e-08 0.5 0.3
v 0.3 0 0.3
v 0.3 0.1 0.3
v 0.3 0.2 0.3
v 0.3 0.3 0.3
v 0.3 0.5 0.3
v 0.4 0.5 0.3
v 0.4 0.6 0.3
v 0.5 0 0.3
v 0.5 0.1 0.3
v 0.5 0.2 0.3
v 0.5 0.4 0.3
v 0.5 0.5 0.3
v 0.7 0.1 0.3
v 0.7 0.4 0.3
v -0.5 0 0.2
v -0.5 0.1 0.2
v -0.4 0 0.2
v -0.4 0.1 0.2
v -0.2 0 0.2
v -0.2 0.1 0.2
v 0.3 0 0.2
v 0.3 0.1 0.2
v 0.5 0 0.2
v 0.5 0.1 0.2
v 0.6 0 0.2
v 0.6 0.1 0.2
v -0.5 0 -0.3
v -0.5 0.1 -0.3
v -0.4 0 -0.3
v -0.4 0.1 -0.3
v -0.2 0 -0.3
v -0.2 0.1 -0.3
v 0.3 0 -0.3
v 0.3 0.1 -0.3
v 0.5 0 -0.3
v 0.5 0.1 -0.3
v 0.6 0 -0.3
v 0.6 0.1 -0.3
v -0.6 0.1 -0.4
v -0.6 0.2 -0.4
v -0.6 0.3 -0.4
v -0.5 0.2 -0.4
v -0.5 0.3 -0.4
v -0.4 0 -0.4
v -0.4 0.1 -0.4
v -0.4 0.2 -0.4
v -0.2 0 -0.4
v -0.2 0.1 -0.4
v -0.2 0.2 -0.4
v -0.1 0.3 -0.4
v -0.1 0.6 -0.4
v -5.96046e-08 0.3 -0.4
v -5.96046e-08 0.5 -0.4
v 0.3 0 -0.4
v 0.3 0.1 -0.4
v 0.3 0.2 -0.4
v 0.3 0.3 -0.4
v 0.3 0.5 -0.4
v 0.4 0.5 -0.4
v 0.4 0.6 -0.4
v 0.5 0 -0.4
v 0.5 0.1 -0.4
v 0.5 0.2 -0.4
v 0.5 0.4 -0.4
v 0.5 0.5 -0.4
v 0.7 0.1 -0.4
v 0.7 0.4 -0.4
v -0.4 0 0.3
v -0.2 0 0.3
v 0.3 0 0.3
v 0.5 0 0.3
v -0.5 0 0.2
v -0.4 0 0.2
v -0.2 0 0.2
v 0.3 0 0.2
v 0.5 0 0.2
v 0.6 0 0.2
v -0.5 0 -0.3
v -0.4 0 -0.3
v -0.2 0 -0.3
v 0.3 0 -0.3
v 0.5 0 -0.3
v 0.6 0 -0.3
v -0.4 0 -0.4
v -0.2 0 -0.4
v 0.3 0 -0.4
v 0.5 0 -0.4
v -0.6 0.1 0.3
v -0.4 0.1 0.3
v -0.2 0.1 0.3
v 0.3 0.1 0.3
v 0.5 0.1 0.3
v 0.7 0.1 0.3
v -0.5 0.1 0.2
v -0.4 0.1 0.2
v -0.2 0.1 0.2
v 0.3 0.1 0.2
v 0.5 0.1 0.2
v 0.6 0.1 0.2
v -0.5 0.1 -0.3
v -0.4 0.1 -0.3
v -0.2 0.1 -0.3
v 0.3 0.1 -0.3
v 0.5 0.1 -0.3
v 0.6 0.1 -0.3
v -0.6 0.1 -0.4
v -0.4 0.1 -0.4
v -0.2 0.1 -0.4
v 0.3 0.1 -0.4
v 0.5 0.1 -0.4
v 0.7 0.1 -0.4
v -0.6 0.3 0.3
v -0.5 0.3 0.3
v -0.1 0.3 0.3
v -0.6 0.3 0.2
v -0.5 0.3 0.2
v -0.1 0.3 0.2
v -0.6 0.3 -0.3
v -0.5 0.3 -0.3
v -0.1 0.3 -0.3
v -0.6 0.3 -0.4
v -0.5 0.3 -0.4
v -0.1 0.3 -0.4
v 0.5 0.4 0.3
v 0.7 0.4 0.3
v 0.5 0.4 0.1
v 0.5 0.4 -0.2
v 0.5 0.4 -0.4
v 0.7 0.4 -0.4
v 0.4 0.5 0.3
v 0.5 0.5 0.3
v 0.4 0.5 0.1
v 0.5 0.5 0.1
v 0.4 0.5 -0.2
v 0.5 0.5 -0.2
v 0.4 0.5 -0.4
v 0.5 0.5 -0.4
v -0.1 0.6 0.3
v 0.4 0.6 0.3
v -0.1 0.6 -0.4
v 0.4 0.6 -0.4

# faces
f 3/2/1 2/2/1 1/2/1
f 4/2/1 2/2/1 3/2/1
f 5/2/1 2/2/1 4/2/1
f 6/2/1 2/2/1 5/2/1
f 7/4/1 4/4/1 3/4/1
f 8/2/1 5/2/1 4/2/1
f 8/4/1 4/4/1 7/4/1
f 9/4/1 6/4/1 5/4/1
f 9/2/1 5/2/1 8/2/1
f 10/4/1 6/4/1 9/4/1
f 13/2/1 12/2/1 11/2/1
f 14/2/1 12/2/1 13/2/1
f 19/3/1 16/3/1 15/3/1
f 20/3/1 16/3/1 19/3/1
f 21/3/1 18/3/1 17/3/1
f 22/3/1 18/3/1 21/3/1
f 27/2/1 24/2/1 23/2/1
f 27/4/1 25/4/1 24/4/1
f 28/2/1 26/2/1 25/2/1
f 28/4/1 25/4/1 27/4/1
f 29/2/1 27/2/1 23/2/1
f 29/2/1 28/2/1 27/2/1
f 30/2/1 26/2/1 28/2/1
f 30/2/1 28/2/1 29/2/1
f 35/3/1 32/3/1 31/3/1
f 36/3/1 32/3/1 35/3/1
f 37/3/1 34/3/1 33/3/1
f 38/3/1 34/3/1 37/3/1
f 39/3/2 40/3/2 43/3/2
f 43/3/2 40/3/2 44/3/2
f 41/3/2 42/3/2 45/3/2
f 45/3/2 42/3/2 46/3/2
f 47/2/2 48/2/2 51/2/2
f 49/2/2 50/2/2 51/2/2
f 48/2/2 49/2/2 51/2/2
f 51/2/2 50/2/2 52/2/2
f 53/3/2 54/3/2 57/3/2
f 57/3/2 54/3/2 58/3/2
f 55/3/2 56/3/2 59/3/2
f 59/3/2 56/3/2 60/3/2
f 61/2/2 62/2/2 65/2/2
f 62/4/2 63/4/2 66/4/2
f 65/2/2 62/2/2 66/2/2
f 63/2/2 64/2/2 67/2/2
f 66/4/2 63/4/2 67/4/2
f 67/2/2 64/2/2 68/2/2
f 69/2/2 70/2/2 71/2/2
f 71/2/2 70/2/2 72/2/2
f 73/2/2 74/2/2 75/2/2
f 75/2/2 74/2/2 76/2/2
f 76/2/2 74/2/2 77/2/2
f 77/2/2 74/2/2 78/2/2
f 73/2/2 75/2/2 79/2/2
f 75/1/2 76/1/2 79/1/2
f 76/2/2 77/2/2 80/2/2
f 79/1/2 76/1/2 80/1/2
f 77/1/2 78/1/2 81/1/2
f 80/2/2 77/2/2 81/2/2
f 78/2/2 74/2/2 82/2/2
f 81/1/2 78/1/2 82/1/2
f 80/2/2 81/2/2 83/2/2
f 79/2/2 80/2/2 83/2/2
f 81/2/2 82/2/2 83/2/2
f 73/2/2 79/2/2 83/2/2
f 82/2/2 74/2/2 84/2/2
f 83/2/2 82/2/2 84/2/2
f 88/2/3 86/2/3 85/2/3
f 88/4/3 87/4/3 86/4/3
f 89/4/3 87/4/3 88/4/3
f 91/2/3 88/2/3 85/2/3
f 91/2/3 89/2/3 88/2/3
f 92/2/3 89/2/3 91/2/3
f 93/3/3 91/3/3 90/3/3
f 93/3/3 92/3/3 91/3/3
f 94/3/3 92/3/3 93/3/3
f 95/2/3 89/2/3 92/2/3
f 95/3/3 92/3/3 94/3/3
f 96/2/3 89/2/3 95/2/3
f 96/2/3 95/2/3 94/2/3
f 98/2/3 96/2/3 94/2/3
f 98/2/3 97/2/3 96/2/3
f 99/2/3 97/2/3 98/2/3
f 101/2/3 98/2/3 94/2/3
f 102/2/3 98/2/3 101/2/3
f 103/4/3 99/4/3 98/4/3
f 103/2/3 98/2/3 102/2/3
f 104/2/3 97/2/3 99/2/3
f 104/4/3 99/4/3 103/4/3
f 105/2/3 103/2/3 102/2/3
f 105/2/3 97/2/3 104/2/3
f 105/2/3 104/2/3 103/2/3
f 106/2/3 97/2/3 105/2/3
f 107/3/3 101/3/3 100/3/3
f 107/3/3 102/3/3 101/3/3
f 108/3/3 102/3/3 107/3/3
f 109/2/3 105/2/3 102/2/3
f 109/3/3 102/3/3 108/3/3
f 110/2/3 105/2/3 109/2/3
f 111/2/3 105/2/3 110/2/3
f 112/2/3 109/2/3 108/2/3
f 112/2/3 110/2/3 109/2/3
f 113/2/3 110/2/3 112/2/3
f 116/2/3 115/2/3 114/2/3
f 117/2/3 115/2/3 116/2/3
f 120/2/3 119/2/3 118/2/3
f 121/2/3 119/2/3 120/2/3
f 124/2/3 123/2/3 122/2/3
f 125/2/3 123/2/3 124/2/3
f 126/2/4 127/2/4 128/2/4
f 128/2/4 127/2/4 129/2/4
f 130/2/4 131/2/4 132/2/4
f 132/2/4 131/2/4 133/2/4
f 134/2/4 135/2/4 136/2/4
f 136/2/4 135/2/4 137/2/4
f 138/2/4 139/2/4 141/2/4
f 139/4/4 140/4/4 141/4/4
f 141/4/4 140/4/4 142/4/4
f 138/2/4 141/2/4 144/2/4
f 141/2/4 142/2/4 144/2/4
f 144/2/4 142/2/4 145/2/4
f 143/3/4 144/3/4 146/3/4
f 144/3/4 145/3/4 146/3/4
f 146/3/4 145/3/4 147/3/4
f 145/2/4 142/2/4 148/2/4
f 147/3/4 145/3/4 148/3/4
f 148/2/4 142/2/4 149/2/4
f 147/2/4 148/2/4 149/2/4
f 147/2/4 149/2/4 151/2/4
f 149/2/4 150/2/4 151/2/4
f 151/2/4 150/2/4 152/2/4
f 147/2/4 151/2/4 154/2/4
f 154/2/4 151/2/4 155/2/4
f 151/4/4 152/4/4 156/4/4
f 155/2/4 151/2/4 156/2/4
f 152/2/4 150/2/4 157/2/4
f 156/4/4 152/4/4 157/4/4
f 155/2/4 156/2/4 158/2/4
f 157/2/4 150/2/4 158/2/4
f 156/2/4 157/2/4 158/2/4
f 158/2/4 150/2/4 159/2/4
f 153/3/4 154/3/4 160/3/4
f 154/3/4 155/3/4 160/3/4
f 160/3/4 155/3/4 161/3/4
f 155/2/4 158/2/4 162/2/4
f 161/3/4 155/3/4 162/3/4
f 162/2/4 158/2/4 163/2/4
f 163/2/4 158/2/4 164/2/4
f 161/2/4 162/2/4 165/2/4
f 162/2/4 163/2/4 165/2/4
f 165/2/4 163/2/4 166/2/4
f 172/3/5 168/3/5 167/3/5
f 173/3/5 168/3/5 172/3/5
f 174/3/5 170/3/5 169/3/5
f 175/3/5 170/3/5 174/3/5
f 177/2/5 173/2/5 172/2/5
f 177/2/5 176/2/5 175/2/5
f 177/2/5 175/2/5 174/2/5
f 177/2/5 174/2/5 173/2/5
f 177/2/5 172/2/5 171/2/5
f 178/2/5 176/2/5 177/2/5
f 179/2/5 176/2/5 178/2/5
f 180/2/5 176/2/5 179/2/5
f 181/2/5 176/2/5 180/2/5
f 182/2/5 176/2/5 181/2/5
f 183/3/5 179/3/5 178/3/5
f 184/3/5 179/3/5 183/3/5
f 185/3/5 181/3/5 180/3/5
f 186/3/5 181/3/5 185/3/5
f 193/2/5 188/2/5 187/2/5
f 194/2/5 188/2/5 193/2/5
f 195/2/5 190/2/5 189/2/5
f 196/2/5 190/2/5 195/2/5
f 197/2/5 192/2/5 191/2/5
f 198/2/5 192/2/5 197/2/5
f 199/2/5 193/2/5 187/2/5
f 204/2/5 192/2/5 198/2/5
f 205/2/5 199/2/5 187/2/5
f 205/2/5 200/2/5 199/2/5
f 206/2/5 200/2/5 205/2/5
f 207/2/5 202/2/5 201/2/5
f 208/2/5 202/2/5 207/2/5
f 209/2/5 204/2/5 203/2/5
f 210/2/5 192/2/5 204/2/5
f 210/2/5 204/2/5 209/2/5
f 211/4/6 212/4/6 214/4/6
f 212/2/6 213/2/6 215/2/6
f 214/4/6 212/4/6 215/4/6
f 215/2/6 213/2/6 216/2/6
f 214/2/6 215/2/6 217/2/6
f 215/2/6 216/2/6 217/2/6
f 217/2/6 216/2/6 218/2/6
f 218/2/6 216/2/6 219/2/6
f 217/4/6 218/4/6 220/4/6
f 218/2/6 219/2/6 221/2/6
f 220/4/6 218/4/6 221/4/6
f 221/2/6 219/2/6 222/2/6
f 223/2/6 224/2/6 225/2/6
f 225/2/6 224/2/6 226/2/6
f 226/2/6 224/2/6 227/2/6
f 227/2/6 224/2/6 228/2/6
f 229/2/6 230/2/6 231/2/6
f 231/2/6 230/2/6 232/2/6
f 231/4/6 232/4/6 233/4/6
f 233/4/6 232/4/6 234/4/6
f 233/2/6 234/2/6 235/2/6
f 235/2/6 234/2/6 236/2/6
f 237/2/6 238/2/6 239/2/6
f 239/2/6 238/2/6 240/2/6
