# Blender v2.92.0 OBJ File: 'RackeTrackColl.blend'
# www.blender.org
mtllib RaceTrackColl-Outside.mtl
o coll.outside_Plane.002
v -12.758611 0.000000 15.269731
v -39.919617 0.000000 -10.776459
v -80.498970 0.000000 -11.597369
v -110.961601 0.000000 -37.501106
v -149.171722 0.000000 -44.747986
v -169.019516 0.000000 -74.982323
v -169.177933 0.000000 -106.740616
v -154.070831 0.000000 -131.937546
v -129.312241 0.000000 -142.546555
v -39.156509 0.000000 -142.546555
v -34.474274 0.000000 -141.147964
v -20.549192 0.000000 -128.317429
v 83.350563 0.000000 -128.317429
v 104.815865 0.000000 -148.323334
v 109.883209 0.000000 -150.399536
v 145.253342 0.000000 -150.399536
v 162.397888 0.000000 -145.416641
v 173.698074 0.000000 -136.802139
v 181.856522 0.000000 -123.170959
v 184.390198 0.000000 -113.897705
v 183.528748 0.000000 -101.533363
v 180.488342 0.000000 -92.412125
v 173.900772 0.000000 -82.986847
v 163.614044 0.000000 -75.892555
v 151.199036 0.000000 -71.940018
v 132.895737 0.000000 -71.190048
v 132.895737 0.000000 45.304863
v 141.446899 0.000000 46.219807
v 152.355789 0.000000 49.809181
v 167.663437 0.000000 59.345661
v 178.183258 0.000000 71.811363
v 183.595200 0.000000 87.195847
v 183.473572 0.000000 104.891060
v 178.061646 0.000000 119.606659
v 163.528473 0.000000 135.051971
v 143.765778 0.000000 144.173203
v 107.949707 0.000000 144.659668
v 92.595627 0.000000 152.260712
v -0.187099 0.000000 152.260712
v -17.796160 0.000000 144.575211
v -84.088036 0.000000 144.575211
v -92.114731 0.000000 140.634842
v -133.257782 0.000000 99.207321
v -158.096054 0.000000 98.650154
v -169.953674 0.000000 94.038857
v -180.443100 0.000000 83.802788
v -185.662476 0.000000 71.083717
v -185.054382 0.000000 56.185688
v -178.213455 0.000000 43.770660
v -144.262146 0.000000 10.427439
v -140.765671 0.000000 8.957906
v -115.276848 0.000000 8.501842
v -96.626152 0.000000 21.557329
v 11.707523 0.000000 21.557329
v 13.234867 0.000000 19.300255
v 11.079616 0.000000 16.720741
v -9.358738 0.000000 16.720741
v -87.096642 0.000000 -14.333720
v -129.458572 0.000000 -37.871300
v -140.835358 0.000000 -40.731964
v -159.217239 0.000000 -53.595810
v -164.118378 0.000000 -61.272972
v -167.079742 0.000000 -67.033096
v -165.679337 0.000000 -116.034828
v -160.761871 0.000000 -124.467590
v -143.211746 0.000000 -139.319687
v -12.758611 10.000000 15.269731
v -39.919617 10.000000 -10.776459
v -80.498970 10.000000 -11.597369
v -110.961601 10.000000 -37.501106
v -149.171722 10.000000 -44.747986
v -169.019516 10.000000 -74.982323
v -169.177933 10.000000 -106.740616
v -154.070831 10.000000 -131.937546
v -129.312241 10.000000 -142.546555
v -39.156509 10.000000 -142.546555
v -34.474274 10.000000 -141.147964
v -20.549192 10.000000 -128.317429
v 83.350563 10.000000 -128.317429
v 104.815865 10.000000 -148.323334
v 109.883209 10.000000 -150.399536
v 145.253342 10.000000 -150.399536
v 162.397888 10.000000 -145.416641
v 173.698074 10.000000 -136.802139
v 181.856522 10.000000 -123.170959
v 184.390198 10.000000 -113.897705
v 183.528748 10.000000 -101.533363
v 180.488342 10.000000 -92.412125
v 173.900772 10.000000 -82.986847
v 163.614044 10.000000 -75.892555
v 151.199036 10.000000 -71.940018
v 132.895737 10.000000 -71.190048
v 132.895737 10.000000 45.304863
v 141.446899 10.000000 46.219807
v 152.355789 10.000000 49.809181
v 167.663437 10.000000 59.345661
v 178.183258 10.000000 71.811363
v 183.595200 10.000000 87.195847
v 183.473572 10.000000 104.891060
v 178.061646 10.000000 119.606659
v 163.528473 10.000000 135.051971
v 143.765778 10.000000 144.173203
v 107.949707 10.000000 144.659668
v 92.595627 10.000000 152.260712
v -0.187099 10.000000 152.260712
v -17.796160 10.000000 144.575211
v -84.088036 10.000000 144.575211
v -92.114731 10.000000 140.634842
v -133.257782 10.000000 99.207321
v -158.096054 10.000000 98.650154
v -169.953674 10.000000 94.038857
v -180.443100 10.000000 83.802788
v -185.662476 10.000000 71.083717
v -185.054382 10.000000 56.185688
v -178.213455 10.000000 43.770660
v -144.262146 10.000000 10.427439
v -140.765671 10.000000 8.957906
v -115.276848 10.000000 8.501842
v -96.626152 10.000000 21.557329
v 11.707523 10.000000 21.557329
v 13.234867 10.000000 19.300255
v 11.079616 10.000000 16.720741
v -9.358738 10.000000 16.720741
v -87.096642 10.000000 -14.333720
v -129.458572 10.000000 -37.871300
v -140.835358 10.000000 -40.731964
v -159.217239 10.000000 -53.595810
v -164.118378 10.000000 -61.272972
v -167.079742 10.000000 -67.033096
v -165.679337 10.000000 -116.034828
v -160.761871 10.000000 -124.467590
v -143.211746 10.000000 -139.319687
vt 0.000000 0.000000
vt 0.000000 0.000000
vt 0.000000 0.000000
vt 0.000000 0.000000
vt 0.000000 0.000000
vt 0.000000 0.000000
vt 0.000000 0.000000
vt 0.000000 0.000000
vt 0.000000 0.000000
vt 0.000000 0.000000
vt 0.000000 0.000000
vt 0.000000 0.000000
vt 0.000000 0.000000
vt 0.000000 0.000000
vt 0.000000 0.000000
vt 0.000000 0.000000
vt 0.000000 0.000000
vt 0.000000 0.000000
vt 0.000000 0.000000
vt 0.000000 0.000000
vt 0.000000 0.000000
vt 0.000000 0.000000
vt 0.000000 0.000000
vt 0.000000 0.000000
vt 0.000000 0.000000
vt 0.000000 0.000000
vt 0.000000 0.000000
vt 0.000000 0.000000
vt 0.000000 0.000000
vt 0.000000 0.000000
vt 0.000000 0.000000
vt 0.000000 0.000000
vt 0.000000 0.000000
vt 0.000000 0.000000
vt 0.000000 0.000000
vt 0.000000 0.000000
vt 0.000000 0.000000
vt 0.000000 0.000000
vt 0.000000 0.000000
vt 0.000000 0.000000
vt 0.000000 0.000000
vt 0.000000 0.000000
vt 0.000000 0.000000
vt 0.000000 0.000000
vt 0.000000 0.000000
vt 0.000000 0.000000
vt 0.000000 0.000000
vt 0.000000 0.000000
vt 0.000000 0.000000
vt 0.000000 0.000000
vt 0.000000 0.000000
vt 0.000000 0.000000
vt 0.000000 0.000000
vt 0.000000 0.000000
vt 0.000000 0.000000
vt 0.000000 0.000000
vt 0.000000 0.000000
vt 0.000000 0.000000
vt 0.000000 0.000000
vt 0.000000 0.000000
vt 0.000000 0.000000
vt 0.000000 0.000000
vt 0.000000 0.000000
vt 0.000000 0.000000
vt 0.000000 0.000000
vt 0.000000 0.000000
vt 0.000000 0.000000
vt 0.000000 0.000000
vt 0.000000 0.000000
vt 0.000000 0.000000
vt 0.000000 0.000000
vt 0.000000 0.000000
vt 0.000000 0.000000
vt 0.000000 0.000000
vt 0.000000 0.000000
vt 0.000000 0.000000
vt 0.000000 0.000000
vt 0.000000 0.000000
vt 0.000000 0.000000
vt 0.000000 0.000000
vt 0.000000 0.000000
vt 0.000000 0.000000
vt 0.000000 0.000000
vt 0.000000 0.000000
vt 0.000000 0.000000
vt 0.000000 0.000000
vt 0.000000 0.000000
vt 0.000000 0.000000
vt 0.000000 0.000000
vt 0.000000 0.000000
vt 0.000000 0.000000
vt 0.000000 0.000000
vt 0.000000 0.000000
vt 0.000000 0.000000
vt 0.000000 0.000000
vt 0.000000 0.000000
vt 0.000000 0.000000
vt 0.000000 0.000000
vt 0.000000 0.000000
vt 0.000000 0.000000
vt 0.000000 0.000000
vt 0.000000 0.000000
vt 0.000000 0.000000
vt 0.000000 0.000000
vt 0.000000 0.000000
vt 0.000000 0.000000
vt 0.000000 0.000000
vt 0.000000 0.000000
vt 0.000000 0.000000
vt 0.000000 0.000000
vt 0.000000 0.000000
vt 0.000000 0.000000
vt 0.000000 0.000000
vt 0.000000 0.000000
vt 0.000000 0.000000
vt 0.000000 0.000000
vt 0.000000 0.000000
vt 0.000000 0.000000
vt 0.000000 0.000000
vt 0.000000 0.000000
vt 0.000000 0.000000
vt 0.000000 0.000000
vt 0.000000 0.000000
vt 0.000000 0.000000
vt 0.000000 0.000000
vt 0.000000 0.000000
vt 0.000000 0.000000
vt 0.000000 0.000000
vt 0.000000 0.000000
vt 0.000000 0.000000
vt 0.000000 0.000000
vt 0.000000 0.000000
vn 0.0000 0.0000 1.0000
vn 0.9359 0.0000 0.3523
vn 0.6818 0.0000 0.7315
vn 0.8639 0.0000 0.5037
vn 0.3791 0.0000 0.9253
vn 0.5622 0.0000 0.8270
vn -0.2791 0.0000 0.9603
vn -0.6063 0.0000 0.7953
vn -0.8581 0.0000 0.5136
vn -0.9646 0.0000 0.2636
vn -0.9976 0.0000 -0.0695
vn -0.9487 0.0000 -0.3162
vn -0.8196 0.0000 -0.5729
vn -0.5677 0.0000 -0.8232
vn -0.3034 0.0000 -0.9529
vn -0.0409 0.0000 -0.9992
vn -1.0000 0.0000 0.0000
vn -0.1064 0.0000 0.9943
vn -0.3125 0.0000 0.9499
vn -0.5288 0.0000 0.8488
vn -0.7642 0.0000 0.6449
vn -0.9433 0.0000 0.3318
vn -1.0000 0.0000 -0.0069
vn -0.9385 0.0000 -0.3452
vn -0.7283 0.0000 -0.6853
vn -0.4191 0.0000 -0.9080
vn -0.0136 0.0000 -0.9999
vn -0.4437 0.0000 -0.8962
vn 0.0000 0.0000 -1.0000
vn 0.4000 0.0000 -0.9165
vn 0.4407 0.0000 -0.8977
vn 0.7095 0.0000 -0.7047
vn 0.0224 0.0000 -0.9997
vn 0.3624 0.0000 -0.9320
vn 0.6984 0.0000 -0.7157
vn 0.9251 0.0000 -0.3796
vn 0.9992 0.0000 0.0408
vn 0.8758 0.0000 0.4826
vn 0.7007 0.0000 0.7135
vn 0.3875 0.0000 0.9219
vn 0.0179 0.0000 0.9998
vn -0.5735 0.0000 0.8192
vn 0.6921 0.0000 -0.7218
vn 0.0202 0.0000 -0.9998
vn 0.8282 0.0000 0.5604
vn 0.6965 0.0000 -0.7175
vn 0.7674 0.0000 -0.6412
vn 0.4340 0.0000 -0.9009
vn 0.9715 0.0000 -0.2371
vn 0.3831 0.0000 -0.9237
vn 1.0000 0.0000 -0.0050
vn 0.3925 0.0000 -0.9197
vn 0.7449 0.0000 0.6672
vn 0.0200 0.0000 -0.9998
vn 0.2261 0.0000 0.9741
vn 0.2439 0.0000 -0.9698
vn 0.6610 0.0000 -0.7504
vn -0.2862 0.0000 0.9582
vn 0.8429 0.0000 -0.5381
vn -0.6776 0.0000 0.7354
vn 0.8893 0.0000 -0.4572
usemtl None
s off
f 12/1/1 13/2/1 79/3/1 78/4/1
f 7/5/2 64/6/2 130/7/2 73/8/2
f 13/2/3 14/9/3 80/10/3 79/3/3
f 64/6/4 65/11/4 131/12/4 130/7/4
f 14/9/5 15/13/5 81/14/5 80/10/5
f 8/15/6 66/16/6 132/17/6 74/18/6
f 15/13/1 16/19/1 82/20/1 81/14/1
f 16/19/7 17/21/7 83/22/7 82/20/7
f 17/21/8 18/23/8 84/24/8 83/22/8
f 18/23/9 19/25/9 85/26/9 84/24/9
f 19/25/10 20/27/10 86/28/10 85/26/10
f 20/27/11 21/29/11 87/30/11 86/28/11
f 21/29/12 22/31/12 88/32/12 87/30/12
f 22/31/13 23/33/13 89/34/13 88/32/13
f 23/33/14 24/35/14 90/36/14 89/34/14
f 24/35/15 25/37/15 91/38/15 90/36/15
f 25/37/16 26/39/16 92/40/16 91/38/16
f 26/39/17 27/41/17 93/42/17 92/40/17
f 27/41/18 28/43/18 94/44/18 93/42/18
f 28/43/19 29/45/19 95/46/19 94/44/19
f 29/45/20 30/47/20 96/48/20 95/46/20
f 30/47/21 31/49/21 97/50/21 96/48/21
f 31/49/22 32/51/22 98/52/22 97/50/22
f 32/51/23 33/53/23 99/54/23 98/52/23
f 33/53/24 34/55/24 100/56/24 99/54/24
f 34/55/25 35/57/25 101/58/25 100/56/25
f 35/57/26 36/59/26 102/60/26 101/58/26
f 36/59/27 37/61/27 103/62/27 102/60/27
f 37/61/28 38/63/28 104/64/28 103/62/28
f 38/63/29 39/65/29 105/66/29 104/64/29
f 39/65/30 40/67/30 106/68/30 105/66/30
f 40/67/29 41/69/29 107/70/29 106/68/29
f 41/69/31 42/71/31 108/72/31 107/70/31
f 42/71/32 43/73/32 109/74/32 108/72/32
f 43/73/33 44/75/33 110/76/33 109/74/33
f 44/75/34 45/77/34 111/78/34 110/76/34
f 45/77/35 46/79/35 112/80/35 111/78/35
f 46/79/36 47/81/36 113/82/36 112/80/36
f 47/81/37 48/83/37 114/84/37 113/82/37
f 48/83/38 49/85/38 115/86/38 114/84/38
f 49/85/39 50/87/39 116/88/39 115/86/39
f 50/87/40 51/89/40 117/90/40 116/88/40
f 51/89/41 52/91/41 118/92/41 117/90/41
f 52/91/42 53/93/42 119/94/42 118/92/42
f 1/95/43 2/96/43 68/97/43 67/98/43
f 53/93/1 54/99/1 120/100/1 119/94/1
f 2/96/44 3/101/44 69/102/44 68/97/44
f 54/99/45 55/103/45 121/104/45 120/100/45
f 58/105/46 4/106/46 70/107/46 124/108/46
f 55/103/47 56/109/47 122/110/47 121/104/47
f 60/111/48 5/112/48 71/113/48 126/114/48
f 56/109/29 57/115/29 123/116/29 122/110/29
f 63/117/49 6/118/49 72/119/49 129/120/49
f 3/101/50 58/105/50 124/108/50 69/102/50
f 6/118/51 7/5/51 73/8/51 72/119/51
f 57/115/52 1/95/52 67/98/52 123/116/52
f 65/11/53 8/15/53 74/18/53 131/12/53
f 4/106/54 59/121/54 125/122/54 70/107/54
f 66/16/55 9/123/55 75/124/55 132/17/55
f 59/121/56 60/111/56 126/114/56 125/122/56
f 9/123/1 10/125/1 76/126/1 75/124/1
f 5/112/57 61/127/57 127/128/57 71/113/57
f 10/125/58 11/129/58 77/130/58 76/126/58
f 61/127/59 62/131/59 128/132/59 127/128/59
f 11/129/60 12/1/60 78/4/60 77/130/60
f 62/131/61 63/117/61 129/120/61 128/132/61
