# Blender v2.92.0 OBJ File: 'RackeTrackColl.blend'
# www.blender.org
mtllib RackeTrackColl-Inside.mtl
o coll.inside_Plane.003
v 16.900000 0.000000 -1.700000
v -5.931764 0.000000 -1.832579
v 10.700573 0.000000 52.499996
v 23.299997 0.000000 44.199997
v 32.299999 0.000000 37.199997
v 35.299999 0.000000 32.200001
v 37.299999 0.000000 26.199999
v 37.299999 0.000000 20.200001
v 36.299999 0.000000 14.200001
v 33.299999 0.000000 8.200000
v 28.299999 0.000000 3.200000
v 22.700001 0.000000 -0.600000
v -31.399996 0.000000 52.499996
v -33.399998 0.000000 51.400002
v -42.899998 0.000000 42.000000
v -44.299995 0.000000 41.400002
v -102.299988 0.000000 41.400002
v -121.299980 0.000000 28.400002
v -134.076080 0.000000 28.400002
v -160.076080 0.000000 55.400002
v -161.947464 0.000000 59.449005
v -162.696014 0.000000 64.518761
v -162.253693 0.000000 69.520470
v -160.280228 0.000000 73.093117
v -155.686813 0.000000 77.040039
v -149.222031 0.000000 78.741302
v -128.330536 0.000000 78.979477
v -124.417641 0.000000 80.476585
v -120.096436 0.000000 83.674957
v -80.312790 0.000000 123.847855
v -78.312790 0.000000 124.847855
v 118.287209 0.000000 124.847855
v 120.287201 0.000000 125.047852
v 126.987206 0.000000 126.647858
v 135.287201 0.000000 128.047852
v 142.787201 0.000000 126.647842
v 151.587219 0.000000 122.247841
v 158.287216 0.000000 116.647842
v 163.587219 0.000000 109.047829
v 166.487213 0.000000 101.547829
v 166.487213 0.000000 89.547821
v 160.787216 0.000000 77.747818
v 156.187210 0.000000 71.747818
v 146.387207 0.000000 65.547821
v 138.787216 0.000000 63.147823
v 118.587204 0.000000 62.847824
v 115.487206 0.000000 59.747822
v 115.487206 0.000000 -100.252174
v 116.487206 0.000000 -104.052177
v 119.187202 0.000000 -106.252167
v 122.987198 0.000000 -106.452164
v 146.587204 0.000000 -106.452164
v 148.387207 0.000000 -109.152161
v 146.987198 0.000000 -111.252167
v -27.012802 0.000000 -111.252167
v -42.712803 0.000000 -124.652168
v -28.833590 0.000000 -112.094116
v -44.812801 0.000000 -125.752174
v -127.212814 0.000000 -125.752174
v -133.112808 0.000000 -124.152168
v -139.312820 0.000000 -120.652176
v -145.712814 0.000000 -114.552177
v -149.312820 0.000000 -108.852173
v -151.512817 0.000000 -102.152168
v -151.512817 0.000000 -79.652168
v -150.512817 0.000000 -74.652168
v -149.512817 0.000000 -71.652168
v -145.512817 0.000000 -65.652168
v -140.512817 0.000000 -60.652168
v -135.612823 0.000000 -57.352169
v -127.812828 0.000000 -54.752167
v -108.112823 0.000000 -54.752167
v -103.412819 0.000000 -53.652168
v -99.242691 0.000000 -50.695461
v -76.604256 0.000000 -28.315559
v -37.604263 0.000000 -28.315559
v -31.177271 0.000000 -26.118093
v -25.583517 0.000000 -21.463438
v 16.900000 10.000000 -1.700000
v -5.931764 10.000000 -1.832579
v 10.700573 10.000000 52.499996
v 23.299997 10.000000 44.199997
v 32.299999 10.000000 37.199997
v 35.299999 10.000000 32.200001
v 37.299999 10.000000 26.199999
v 37.299999 10.000000 20.200001
v 36.299999 10.000000 14.200001
v 33.299999 10.000000 8.200000
v 28.299999 10.000000 3.200000
v 22.700001 10.000000 -0.600000
v -31.399996 10.000000 52.499996
v -33.399998 10.000000 51.400002
v -42.899998 10.000000 42.000000
v -44.299995 10.000000 41.400002
v -102.299988 10.000000 41.400002
v -121.299980 10.000000 28.400002
v -134.076080 10.000000 28.400002
v -160.076080 10.000000 55.400002
v -161.947464 10.000000 59.449005
v -162.696014 10.000000 64.518761
v -162.253693 10.000000 69.520470
v -160.280228 10.000000 73.093117
v -155.686813 10.000000 77.040039
v -149.222031 10.000000 78.741302
v -128.330536 10.000000 78.979477
v -124.417641 10.000000 80.476585
v -120.096436 10.000000 83.674957
v -80.312790 10.000000 123.847855
v -78.312790 10.000000 124.847855
v 118.287209 10.000000 124.847855
v 120.287201 10.000000 125.047852
v 126.987206 10.000000 126.647858
v 135.287201 10.000000 128.047852
v 142.787201 10.000000 126.647842
v 151.587219 10.000000 122.247841
v 158.287216 10.000000 116.647842
v 163.587219 10.000000 109.047829
v 166.487213 10.000000 101.547829
v 166.487213 10.000000 89.547821
v 160.787216 10.000000 77.747818
v 156.187210 10.000000 71.747818
v 146.387207 10.000000 65.547821
v 138.787216 10.000000 63.147823
v 118.587204 10.000000 62.847824
v 115.487206 10.000000 59.747822
v 115.487206 10.000000 -100.252174
v 116.487206 10.000000 -104.052177
v 119.187202 10.000000 -106.252167
v 122.987198 10.000000 -106.452164
v 146.587204 10.000000 -106.452164
v 148.387207 10.000000 -109.152161
v 146.987198 10.000000 -111.252167
v -27.012802 10.000000 -111.252167
v -42.712803 10.000000 -124.652168
v -28.833590 10.000000 -112.094116
v -44.812801 10.000000 -125.752174
v -127.212814 10.000000 -125.752174
v -133.112808 10.000000 -124.152168
v -139.312820 10.000000 -120.652176
v -145.712814 10.000000 -114.552177
v -149.312820 10.000000 -108.852173
v -151.512817 10.000000 -102.152168
v -151.512817 10.000000 -79.652168
v -150.512817 10.000000 -74.652168
v -149.512817 10.000000 -71.652168
v -145.512817 10.000000 -65.652168
v -140.512817 10.000000 -60.652168
v -135.612823 10.000000 -57.352169
v -127.812828 10.000000 -54.752167
v -108.112823 10.000000 -54.752167
v -103.412819 10.000000 -53.652168
v -99.242691 10.000000 -50.695461
v -76.604256 10.000000 -28.315559
v -37.604263 10.000000 -28.315559
v -31.177271 10.000000 -26.118093
v -25.583517 10.000000 -21.463438
vt 0.000000 0.000000
vt 0.000000 0.000000
vt 0.000000 0.000000
vt 0.000000 0.000000
vt 0.000000 0.000000
vt 0.000000 0.000000
vt 0.000000 0.000000
vt 0.000000 0.000000
vt 0.000000 0.000000
vt 0.000000 0.000000
vt 0.000000 0.000000
vt 0.000000 0.000000
vt 0.000000 0.000000
vt 0.000000 0.000000
vt 0.000000 0.000000
vt 0.000000 0.000000
vt 0.000000 0.000000
vt 0.000000 0.000000
vt 0.000000 0.000000
vt 0.000000 0.000000
vt 0.000000 0.000000
vt 0.000000 0.000000
vt 0.000000 0.000000
vt 0.000000 0.000000
vt 0.000000 0.000000
vt 0.000000 0.000000
vt 0.000000 0.000000
vt 0.000000 0.000000
vt 0.000000 0.000000
vt 0.000000 0.000000
vt 0.000000 0.000000
vt 0.000000 0.000000
vt 0.000000 0.000000
vt 0.000000 0.000000
vt 0.000000 0.000000
vt 0.000000 0.000000
vt 0.000000 0.000000
vt 0.000000 0.000000
vt 0.000000 0.000000
vt 0.000000 0.000000
vt 0.000000 0.000000
vt 0.000000 0.000000
vt 0.000000 0.000000
vt 0.000000 0.000000
vt 0.000000 0.000000
vt 0.000000 0.000000
vt 0.000000 0.000000
vt 0.000000 0.000000
vt 0.000000 0.000000
vt 0.000000 0.000000
vt 0.000000 0.000000
vt 0.000000 0.000000
vt 0.000000 0.000000
vt 0.000000 0.000000
vt 0.000000 0.000000
vt 0.000000 0.000000
vt 0.000000 0.000000
vt 0.000000 0.000000
vt 0.000000 0.000000
vt 0.000000 0.000000
vt 0.000000 0.000000
vt 0.000000 0.000000
vt 0.000000 0.000000
vt 0.000000 0.000000
vt 0.000000 0.000000
vt 0.000000 0.000000
vt 0.000000 0.000000
vt 0.000000 0.000000
vt 0.000000 0.000000
vt 0.000000 0.000000
vt 0.000000 0.000000
vt 0.000000 0.000000
vt 0.000000 0.000000
vt 0.000000 0.000000
vt 0.000000 0.000000
vt 0.000000 0.000000
vt 0.000000 0.000000
vt 0.000000 0.000000
vt 0.000000 0.000000
vt 0.000000 0.000000
vt 0.000000 0.000000
vt 0.000000 0.000000
vt 0.000000 0.000000
vt 0.000000 0.000000
vt 0.000000 0.000000
vt 0.000000 0.000000
vt 0.000000 0.000000
vt 0.000000 0.000000
vt 0.000000 0.000000
vt 0.000000 0.000000
vt 0.000000 0.000000
vt 0.000000 0.000000
vt 0.000000 0.000000
vt 0.000000 0.000000
vt 0.000000 0.000000
vt 0.000000 0.000000
vt 0.000000 0.000000
vt 0.000000 0.000000
vt 0.000000 0.000000
vt 0.000000 0.000000
vt 0.000000 0.000000
vt 0.000000 0.000000
vt 0.000000 0.000000
vt 0.000000 0.000000
vt 0.000000 0.000000
vt 0.000000 0.000000
vt 0.000000 0.000000
vt 0.000000 0.000000
vt 0.000000 0.000000
vt 0.000000 0.000000
vt 0.000000 0.000000
vt 0.000000 0.000000
vt 0.000000 0.000000
vt 0.000000 0.000000
vt 0.000000 0.000000
vt 0.000000 0.000000
vt 0.000000 0.000000
vt 0.000000 0.000000
vt 0.000000 0.000000
vt 0.000000 0.000000
vt 0.000000 0.000000
vt 0.000000 0.000000
vt 0.000000 0.000000
vt 0.000000 0.000000
vt 0.000000 0.000000
vt 0.000000 0.000000
vt 0.000000 0.000000
vt 0.000000 0.000000
vt 0.000000 0.000000
vt 0.000000 0.000000
vt 0.000000 0.000000
vt 0.000000 0.000000
vt 0.000000 0.000000
vt 0.000000 0.000000
vt 0.000000 0.000000
vt 0.000000 0.000000
vt 0.000000 0.000000
vt 0.000000 0.000000
vt 0.000000 0.000000
vt 0.000000 0.000000
vt 0.000000 0.000000
vt 0.000000 0.000000
vt 0.000000 0.000000
vt 0.000000 0.000000
vt 0.000000 0.000000
vt 0.000000 0.000000
vt 0.000000 0.000000
vt 0.000000 0.000000
vt 0.000000 0.000000
vt 0.000000 0.000000
vt 0.000000 0.000000
vt 0.000000 0.000000
vt 0.000000 0.000000
vt 0.000000 0.000000
vt 0.000000 0.000000
vt 0.000000 0.000000
vn 0.8202 0.0000 0.5720
vn 0.9327 0.0000 0.3606
vn 1.0000 0.0000 0.0000
vn 0.9004 0.0000 -0.4350
vn 0.7936 0.0000 -0.6084
vn 0.5346 0.0000 -0.8451
vn 0.3011 0.0000 -0.9536
vn 0.0148 0.0000 -0.9999
vn 0.7071 0.0000 -0.7071
vn 0.9671 0.0000 0.2545
vn 0.6317 0.0000 0.7752
vn 0.0526 0.0000 0.9986
vn 0.0000 0.0000 1.0000
vn -0.7067 0.0000 0.7075
vn 0.8320 0.0000 0.5547
vn -0.0058 0.0000 1.0000
vn 0.8321 0.0000 -0.5547
vn 0.0000 0.0000 -1.0000
vn -0.5501 0.0000 -0.8351
vn 0.6709 0.0000 -0.7415
vn -0.6139 0.0000 -0.7894
vn 0.4197 0.0000 -0.9077
vn -0.8575 0.0000 -0.5145
vn 0.4640 0.0000 -0.8858
vn -0.9487 0.0000 -0.3162
vn -1.0000 0.0000 0.0000
vn -0.2617 0.0000 -0.9651
vn -0.9864 0.0000 0.1644
vn -0.4916 0.0000 -0.8708
vn -0.8944 0.0000 0.4472
vn -0.6899 0.0000 -0.7239
vn -0.7071 0.0000 0.7071
vn -0.8455 0.0000 -0.5340
vn -0.5615 0.0000 0.8275
vn -0.9501 0.0000 -0.3120
vn -0.1863 0.0000 0.9825
vn 0.4819 0.0000 -0.8762
vn -0.9806 0.0000 0.1961
vn 0.7034 0.0000 -0.7108
vn -0.9487 0.0000 0.3162
vn 0.3939 0.0000 -0.9191
vn -0.8321 0.0000 0.5547
vn 0.5647 0.0000 -0.8253
vn -0.5586 0.0000 0.8294
vn -0.3162 0.0000 0.9487
vn -0.7203 0.0000 -0.6936
vn -0.9077 0.0000 -0.4195
vn -0.2279 0.0000 0.9737
vn -0.9893 0.0000 -0.1461
vn -0.5784 0.0000 0.8158
vn -0.9961 0.0000 0.0881
vn -0.7030 0.0000 0.7112
vn -0.8753 0.0000 0.4835
vn -0.6517 0.0000 0.7585
vn -0.3235 0.0000 0.9462
vn -0.2545 0.0000 0.9671
vn -0.6396 0.0000 0.7687
vn -0.0114 0.0000 0.9999
vn -0.3573 0.0000 0.9340
vn -0.5949 0.0000 0.8038
vn -0.7105 0.0000 0.7037
vn -0.4472 0.0000 0.8944
vn -0.0995 0.0000 0.9950
vn -0.2323 0.0000 0.9727
vn -0.1663 0.0000 0.9861
vn 0.1835 0.0000 0.9830
vn 0.4472 0.0000 0.8944
vn 0.6413 0.0000 0.7673
usemtl None
s off
f 38/1/1 39/2/1 117/3/1 116/4/1
f 39/2/2 40/5/2 118/6/2 117/3/2
f 40/5/3 41/7/3 119/8/3 118/6/3
f 41/7/4 42/9/4 120/10/4 119/8/4
f 42/9/5 43/11/5 121/12/5 120/10/5
f 43/11/6 44/13/6 122/14/6 121/12/6
f 44/13/7 45/15/7 123/16/7 122/14/7
f 45/15/8 46/17/8 124/18/8 123/16/8
f 46/17/9 47/19/9 125/20/9 124/18/9
f 47/19/3 48/21/3 126/22/3 125/20/3
f 48/21/10 49/23/10 127/24/10 126/22/10
f 49/23/11 50/25/11 128/26/11 127/24/11
f 50/25/12 51/27/12 129/28/12 128/26/12
f 51/27/13 52/29/13 130/30/13 129/28/13
f 78/31/14 2/32/14 80/33/14 156/34/14
f 52/29/15 53/35/15 131/36/15 130/30/15
f 2/32/16 1/37/16 79/38/16 80/33/16
f 53/35/17 54/39/17 132/40/17 131/36/17
f 3/41/18 13/42/18 91/43/18 81/44/18
f 54/39/18 55/45/18 133/46/18 132/40/18
f 4/47/19 3/41/19 81/44/19 82/48/19
f 57/49/20 56/50/20 134/51/20 135/52/20
f 5/53/21 4/47/21 82/48/21 83/54/21
f 55/45/22 57/49/22 135/52/22 133/46/22
f 6/55/23 5/53/23 83/54/23 84/56/23
f 56/50/24 58/57/24 136/58/24 134/51/24
f 7/59/25 6/55/25 84/56/25 85/60/25
f 58/57/18 59/61/18 137/62/18 136/58/18
f 8/63/26 7/59/26 85/60/26 86/64/26
f 59/61/27 60/65/27 138/66/27 137/62/27
f 9/67/28 8/63/28 86/64/28 87/68/28
f 60/65/29 61/69/29 139/70/29 138/66/29
f 10/71/30 9/67/30 87/68/30 88/72/30
f 61/69/31 62/73/31 140/74/31 139/70/31
f 11/75/32 10/71/32 88/72/32 89/76/32
f 62/73/33 63/77/33 141/78/33 140/74/33
f 12/79/34 11/75/34 89/76/34 90/80/34
f 63/77/35 64/81/35 142/82/35 141/78/35
f 1/37/36 12/79/36 90/80/36 79/38/36
f 64/81/26 65/83/26 143/84/26 142/82/26
f 13/42/37 14/85/37 92/86/37 91/43/37
f 65/83/38 66/87/38 144/88/38 143/84/38
f 14/85/39 15/89/39 93/90/39 92/86/39
f 66/87/40 67/91/40 145/92/40 144/88/40
f 15/89/41 16/93/41 94/94/41 93/90/41
f 67/91/42 68/95/42 146/96/42 145/92/42
f 16/93/18 17/97/18 95/98/18 94/94/18
f 68/95/32 69/99/32 147/100/32 146/96/32
f 17/97/43 18/101/43 96/102/43 95/98/43
f 69/99/44 70/103/44 148/104/44 147/100/44
f 18/101/18 19/105/18 97/106/18 96/102/18
f 70/103/45 71/107/45 149/108/45 148/104/45
f 19/105/46 20/109/46 98/110/46 97/106/46
f 71/107/13 72/111/13 150/112/13 149/108/13
f 20/109/47 21/113/47 99/114/47 98/110/47
f 72/111/48 73/115/48 151/116/48 150/112/48
f 21/113/49 22/117/49 100/118/49 99/114/49
f 73/115/50 74/119/50 152/120/50 151/116/50
f 22/117/51 23/121/51 101/122/51 100/118/51
f 74/119/52 75/123/52 153/124/52 152/120/52
f 23/121/53 24/125/53 102/126/53 101/122/53
f 75/123/13 76/127/13 154/128/13 153/124/13
f 24/125/54 25/129/54 103/130/54 102/126/54
f 76/127/55 77/131/55 155/132/55 154/128/55
f 25/129/56 26/133/56 104/134/56 103/130/56
f 77/131/57 78/31/57 156/34/57 155/132/57
f 26/133/58 27/135/58 105/136/58 104/134/58
f 27/135/59 28/137/59 106/138/59 105/136/59
f 28/137/60 29/139/60 107/140/60 106/138/60
f 29/139/61 30/141/61 108/142/61 107/140/61
f 30/141/62 31/143/62 109/144/62 108/142/62
f 31/143/13 32/145/13 110/146/13 109/144/13
f 32/145/63 33/147/63 111/148/63 110/146/63
f 33/147/64 34/149/64 112/150/64 111/148/64
f 34/149/65 35/151/65 113/152/65 112/150/65
f 35/151/66 36/153/66 114/154/66 113/152/66
f 36/153/67 37/155/67 115/156/67 114/154/67
f 37/155/68 38/1/68 116/4/68 115/156/68
