{
    "asset" : {
        "generator" : "Khronos glTF Blender I/O v3.3.36",
        "version" : "2.0"
    },
    "scene" : 0,
    "scenes" : [
        {
            "name" : "Scene",
            "nodes" : [
                0,
                1,
                2
            ]
        }
    ],
    "nodes" : [
        {
            "mesh" : 0,
            "name" : "wrench-handle"
        },
        {
            "mesh" : 1,
            "name" : "wrench-jaw",
            "translation" : [
                10.967846870422363,
                3.4092857837677,
                -78.04854583740234
            ]
        },
        {
            "mesh" : 2,
            "name" : "wrench-nut",
            "rotation" : [
                -0.7071067094802856,
                0,
                0,
                0.7071068286895752
            ],
            "translation" : [
                21.745229721069336,
                10.021223068237305,
                -42.33094024658203
            ]
        }
    ],
    "meshes" : [
        {
            "name" : "wrench-handle",
            "primitives" : [
                {
                    "attributes" : {
                        "POSITION" : 0,
                        "NORMAL" : 1
                    },
                    "indices" : 2
                }
            ]
        },
        {
            "name" : "wrench-jaw",
            "primitives" : [
                {
                    "attributes" : {
                        "POSITION" : 3,
                        "NORMAL" : 4
                    },
                    "indices" : 5
                }
            ]
        },
        {
            "name" : "wrench-nut",
            "primitives" : [
                {
                    "attributes" : {
                        "POSITION" : 6,
                        "NORMAL" : 7
                    },
                    "indices" : 8
                }
            ]
        }
    ],
    "accessors" : [
        {
            "bufferView" : 0,
            "componentType" : 5126,
            "count" : 2216,
            "max" : [
                42.87881088256836,
                19.05000877380371,
                83.31581115722656
            ],
            "min" : [
                -21.24872398376465,
                -6.895416390761966e-06,
                -71.29876708984375
            ],
            "type" : "VEC3"
        },
        {
            "bufferView" : 1,
            "componentType" : 5126,
            "count" : 2216,
            "type" : "VEC3"
        },
        {
            "bufferView" : 2,
            "componentType" : 5123,
            "count" : 6426,
            "type" : "SCALAR"
        },
        {
            "bufferView" : 3,
            "componentType" : 5126,
            "count" : 18106,
            "max" : [
                22.438098907470703,
                12.700019836425781,
                73.85602569580078
            ],
            "min" : [
                -32.169219970703125,
                -0.00010712794028222561,
                -15.801026344299316
            ],
            "type" : "VEC3"
        },
        {
            "bufferView" : 4,
            "componentType" : 5126,
            "count" : 18106,
            "type" : "VEC3"
        },
        {
            "bufferView" : 5,
            "componentType" : 5123,
            "count" : 80628,
            "type" : "SCALAR"
        },
        {
            "bufferView" : 6,
            "componentType" : 5126,
            "count" : 12162,
            "max" : [
                15.280117988586426,
                6.368159294128418,
                15.234189987182617
            ],
            "min" : [
                -15.197279930114746,
                -6.332144260406494,
                -15.256244659423828
            ],
            "type" : "VEC3"
        },
        {
            "bufferView" : 7,
            "componentType" : 5126,
            "count" : 12162,
            "type" : "VEC3"
        },
        {
            "bufferView" : 8,
            "componentType" : 5123,
            "count" : 12162,
            "type" : "SCALAR"
        }
    ],
    "bufferViews" : [
        {
            "buffer" : 0,
            "byteLength" : 26592,
            "byteOffset" : 0,
            "target" : 34962
        },
        {
            "buffer" : 0,
            "byteLength" : 26592,
            "byteOffset" : 26592,
            "target" : 34962
        },
        {
            "buffer" : 0,
            "byteLength" : 12852,
            "byteOffset" : 53184,
            "target" : 34963
        },
        {
            "buffer" : 0,
            "byteLength" : 217272,
            "byteOffset" : 66036,
            "target" : 34962
        },
        {
            "buffer" : 0,
            "byteLength" : 217272,
            "byteOffset" : 283308,
            "target" : 34962
        },
        {
            "buffer" : 0,
            "byteLength" : 161256,
            "byteOffset" : 500580,
            "target" : 34963
        },
        {
            "buffer" : 0,
            "byteLength" : 145944,
            "byteOffset" : 661836,
            "target" : 34962
        },
        {
            "buffer" : 0,
            "byteLength" : 145944,
            "byteOffset" : 807780,
            "target" : 34962
        },
        {
            "buffer" : 0,
            "byteLength" : 24324,
            "byteOffset" : 953724,
            "target" : 34963
        }
    ],
    "buffers" : [
        {
            "byteLength" : 978048,
            "uri" : "data:application/octet-stream;base64,"
        }
    ]
}
