# MagicaVoxel @ Ephtracy

# group
o 

# material
mtllib town-3.mtl
usemtl palette

# normals
vn -1 0 0
vn 1 0 0
vn 0 0 1
vn 0 0 -1
vn 0 -1 0
vn 0 1 0

# texcoords
vt 0.974609 0.5
vt 0.978516 0.5
vt 0.982422 0.5

# verts
v -1.6 0 1.6
v -1.6 0 0.1
v -1.6 0 -0.1
v -1.6 0 -1.6
v -1.6 0.1 1.6
v -1.6 0.1 1
v -1.6 0.1 0.1
v -1.6 0.1 -0.1
v -1.6 0.1 -1
v -1.6 0.1 -1.6
v -1.6 0.2 1.6
v -1.6 0.2 1
v -1.6 0.2 -1
v -1.6 0.2 -1.6
v 1 0.1 1.6
v 1 0.1 1
v 1 0.1 -1
v 1 0.1 -1.6
v 1 0.2 1.6
v 1 0.2 1
v 1 0.2 -1
v 1 0.2 -1.6
v -1 0.1 1.6
v -1 0.1 1
v -1 0.1 -1
v -1 0.1 -1.6
v -1 0.2 1.6
v -1 0.2 1
v -1 0.2 -1
v -1 0.2 -1.6
v 1.6 0 1.6
v 1.6 0 0.1
v 1.6 0 -0.1
v 1.6 0 -1.6
v 1.6 0.1 1.6
v 1.6 0.1 1
v 1.6 0.1 0.1
v 1.6 0.1 -0.1
v 1.6 0.1 -1
v 1.6 0.1 -1.6
v 1.6 0.2 1.6
v 1.6 0.2 1
v 1.6 0.2 -1
v 1.6 0.2 -1.6
v -1.6 0 1.6
v -1.6 0.1 1.6
v -1.6 0.2 1.6
v -1 0.1 1.6
v -1 0.2 1.6
v -0.1 0 1.6
v -0.1 0.1 1.6
v 0.1 0 1.6
v 0.1 0.1 1.6
v 1 0.1 1.6
v 1 0.2 1.6
v 1.6 0 1.6
v 1.6 0.1 1.6
v 1.6 0.2 1.6
v -1.6 0.1 -1
v -1.6 0.2 -1
v -1 0.1 -1
v -1 0.2 -1
v 1 0.1 -1
v 1 0.2 -1
v 1.6 0.1 -1
v 1.6 0.2 -1
v -1.6 0.1 1
v -1.6 0.2 1
v -1 0.1 1
v -1 0.2 1
v 1 0.1 1
v 1 0.2 1
v 1.6 0.1 1
v 1.6 0.2 1
v -1.6 0 -1.6
v -1.6 0.1 -1.6
v -1.6 0.2 -1.6
v -1 0.1 -1.6
v -1 0.2 -1.6
v -0.1 0 -1.6
v -0.1 0.1 -1.6
v 0.1 0 -1.6
v 0.1 0.1 -1.6
v 1 0.1 -1.6
v 1 0.2 -1.6
v 1.6 0 -1.6
v 1.6 0.1 -1.6
v 1.6 0.2 -1.6
v -1.6 0 1.6
v -0.1 0 1.6
v 0.1 0 1.6
v 1.6 0 1.6
v -0.1 0 1.2
v 0.1 0 1.2
v -0.1 0 1
v 0.1 0 1
v -0.1 0 0.4
v 0.1 0 0.4
v -0.1 0 0.2
v 0.1 0 0.2
v -1.6 0 0.1
v -1 0 0.1
v -0.8 0 0.1
v -0.3 0 0.1
v 0.3 0 0.1
v 0.8 0 0.1
v 1 0 0.1
v 1.6 0 0.1
v -1.6 0 -0.1
v -1 0 -0.1
v -0.8 0 -0.1
v -0.3 0 -0.1
v 0.3 0 -0.1
v 0.8 0 -0.1
v 1 0 -0.1
v 1.6 0 -0.1
v -0.1 0 -0.2
v 0.1 0 -0.2
v -0.1 0 -0.4
v 0.1 0 -0.4
v -0.1 0 -1
v 0.1 0 -1
v -0.1 0 -1.2
v 0.1 0 -1.2
v -1.6 0 -1.6
v -0.1 0 -1.6
v 0.1 0 -1.6
v 1.6 0 -1.6
v -1 0.1 1.6
v -0.1 0.1 1.6
v 0.1 0.1 1.6
v 1 0.1 1.6
v -0.1 0.1 1.2
v 0.1 0.1 1.2
v -1.6 0.1 1
v -1 0.1 1
v -0.1 0.1 1
v 0.1 0.1 1
v 1 0.1 1
v 1.6 0.1 1
v -0.1 0.1 0.4
v 0.1 0.1 0.4
v -0.1 0.1 0.2
v 0.1 0.1 0.2
v -1.6 0.1 0.1
v -1 0.1 0.1
v -0.8 0.1 0.1
v -0.3 0.1 0.1
v 0.3 0.1 0.1
v 0.8 0.1 0.1
v 1 0.1 0.1
v 1.6 0.1 0.1
v -1.6 0.1 -0.1
v -1 0.1 -0.1
v -0.8 0.1 -0.1
v -0.3 0.1 -0.1
v 0.3 0.1 -0.1
v 0.8 0.1 -0.1
v 1 0.1 -0.1
v 1.6 0.1 -0.1
v -0.1 0.1 -0.2
v 0.1 0.1 -0.2
v -0.1 0.1 -0.4
v 0.1 0.1 -0.4
v -1.6 0.1 -1
v -1 0.1 -1
v -0.1 0.1 -1
v 0.1 0.1 -1
v 1 0.1 -1
v 1.6 0.1 -1
v -0.1 0.1 -1.2
v 0.1 0.1 -1.2
v -1 0.1 -1.6
v -0.1 0.1 -1.6
v 0.1 0.1 -1.6
v 1 0.1 -1.6
v -1.6 0.2 1.6
v -1 0.2 1.6
v 1 0.2 1.6
v 1.6 0.2 1.6
v -1.6 0.2 1
v -1 0.2 1
v 1 0.2 1
v 1.6 0.2 1
v -1.6 0.2 -1
v -1 0.2 -1
v 1 0.2 -1
v 1.6 0.2 -1
v -1.6 0.2 -1.6
v -1 0.2 -1.6
v 1 0.2 -1.6
v 1.6 0.2 -1.6

# faces
f 5/2/1 2/2/1 1/2/1
f 6/2/1 2/2/1 5/2/1
f 7/1/1 3/1/1 2/1/1
f 7/2/1 2/2/1 6/2/1
f 8/2/1 4/2/1 3/2/1
f 8/1/1 3/1/1 7/1/1
f 9/2/1 4/2/1 8/2/1
f 10/2/1 4/2/1 9/2/1
f 11/3/1 6/3/1 5/3/1
f 12/3/1 6/3/1 11/3/1
f 13/3/1 10/3/1 9/3/1
f 14/3/1 10/3/1 13/3/1
f 19/3/1 16/3/1 15/3/1
f 20/3/1 16/3/1 19/3/1
f 21/3/1 18/3/1 17/3/1
f 22/3/1 18/3/1 21/3/1
f 23/3/2 24/3/2 27/3/2
f 27/3/2 24/3/2 28/3/2
f 25/3/2 26/3/2 29/3/2
f 29/3/2 26/3/2 30/3/2
f 31/2/2 32/2/2 35/2/2
f 35/2/2 32/2/2 36/2/2
f 32/1/2 33/1/2 37/1/2
f 36/2/2 32/2/2 37/2/2
f 33/2/2 34/2/2 38/2/2
f 37/1/2 33/1/2 38/1/2
f 38/2/2 34/2/2 39/2/2
f 39/2/2 34/2/2 40/2/2
f 35/3/2 36/3/2 41/3/2
f 41/3/2 36/3/2 42/3/2
f 39/3/2 40/3/2 43/3/2
f 43/3/2 40/3/2 44/3/2
f 48/2/3 46/2/3 45/2/3
f 48/3/3 47/3/3 46/3/3
f 49/3/3 47/3/3 48/3/3
f 50/2/3 48/2/3 45/2/3
f 51/2/3 48/2/3 50/2/3
f 52/1/3 51/1/3 50/1/3
f 53/1/3 51/1/3 52/1/3
f 54/2/3 53/2/3 52/2/3
f 56/2/3 54/2/3 52/2/3
f 57/3/3 55/3/3 54/3/3
f 57/2/3 54/2/3 56/2/3
f 58/3/3 55/3/3 57/3/3
f 61/3/3 60/3/3 59/3/3
f 62/3/3 60/3/3 61/3/3
f 65/3/3 64/3/3 63/3/3
f 66/3/3 64/3/3 65/3/3
f 67/3/4 68/3/4 69/3/4
f 69/3/4 68/3/4 70/3/4
f 71/3/4 72/3/4 73/3/4
f 73/3/4 72/3/4 74/3/4
f 75/2/4 76/2/4 78/2/4
f 76/3/4 77/3/4 78/3/4
f 78/3/4 77/3/4 79/3/4
f 75/2/4 78/2/4 80/2/4
f 80/2/4 78/2/4 81/2/4
f 80/1/4 81/1/4 82/1/4
f 82/1/4 81/1/4 83/1/4
f 82/2/4 83/2/4 84/2/4
f 82/2/4 84/2/4 86/2/4
f 84/3/4 85/3/4 87/3/4
f 86/2/4 84/2/4 87/2/4
f 87/3/4 85/3/4 88/3/4
f 93/2/5 90/2/5 89/2/5
f 93/1/5 91/1/5 90/1/5
f 94/2/5 92/2/5 91/2/5
f 94/1/5 91/1/5 93/1/5
f 95/2/5 93/2/5 89/2/5
f 95/2/5 94/2/5 93/2/5
f 96/2/5 92/2/5 94/2/5
f 96/2/5 94/2/5 95/2/5
f 97/2/5 95/2/5 89/2/5
f 97/1/5 96/1/5 95/1/5
f 98/2/5 92/2/5 96/2/5
f 98/1/5 96/1/5 97/1/5
f 99/2/5 97/2/5 89/2/5
f 99/2/5 98/2/5 97/2/5
f 100/2/5 92/2/5 98/2/5
f 100/2/5 98/2/5 99/2/5
f 101/2/5 99/2/5 89/2/5
f 102/2/5 99/2/5 101/2/5
f 103/2/5 99/2/5 102/2/5
f 104/2/5 99/2/5 103/2/5
f 105/2/5 92/2/5 100/2/5
f 106/2/5 92/2/5 105/2/5
f 107/2/5 92/2/5 106/2/5
f 108/2/5 92/2/5 107/2/5
f 109/1/5 102/1/5 101/1/5
f 110/2/5 103/2/5 102/2/5
f 110/1/5 102/1/5 109/1/5
f 111/1/5 104/1/5 103/1/5
f 111/2/5 103/2/5 110/2/5
f 112/2/5 99/2/5 104/2/5
f 112/1/5 104/1/5 111/1/5
f 113/2/5 105/2/5 100/2/5
f 113/1/5 106/1/5 105/1/5
f 114/2/5 107/2/5 106/2/5
f 114/1/5 106/1/5 113/1/5
f 115/1/5 108/1/5 107/1/5
f 115/2/5 107/2/5 114/2/5
f 116/1/5 108/1/5 115/1/5
f 117/2/5 111/2/5 110/2/5
f 117/1/5 100/1/5 99/1/5
f 117/2/5 110/2/5 109/2/5
f 117/2/5 99/2/5 112/2/5
f 117/2/5 112/2/5 111/2/5
f 118/2/5 116/2/5 115/2/5
f 118/1/5 100/1/5 117/1/5
f 118/2/5 115/2/5 114/2/5
f 118/2/5 113/2/5 100/2/5
f 118/2/5 114/2/5 113/2/5
f 119/2/5 117/2/5 109/2/5
f 119/2/5 118/2/5 117/2/5
f 120/2/5 116/2/5 118/2/5
f 120/2/5 118/2/5 119/2/5
f 121/2/5 119/2/5 109/2/5
f 121/1/5 120/1/5 119/1/5
f 122/2/5 116/2/5 120/2/5
f 122/1/5 120/1/5 121/1/5
f 123/2/5 121/2/5 109/2/5
f 123/2/5 122/2/5 121/2/5
f 124/2/5 116/2/5 122/2/5
f 124/2/5 122/2/5 123/2/5
f 125/2/5 123/2/5 109/2/5
f 126/1/5 124/1/5 123/1/5
f 126/2/5 123/2/5 125/2/5
f 127/2/5 116/2/5 124/2/5
f 127/1/5 124/1/5 126/1/5
f 128/2/5 116/2/5 127/2/5
f 129/2/6 130/2/6 133/2/6
f 130/1/6 131/1/6 133/1/6
f 131/2/6 132/2/6 134/2/6
f 133/1/6 131/1/6 134/1/6
f 129/2/6 133/2/6 136/2/6
f 133/2/6 134/2/6 136/2/6
f 136/2/6 134/2/6 137/2/6
f 134/2/6 132/2/6 138/2/6
f 137/2/6 134/2/6 138/2/6
f 138/2/6 132/2/6 139/2/6
f 136/2/6 137/2/6 141/2/6
f 135/2/6 136/2/6 141/2/6
f 137/1/6 138/1/6 141/1/6
f 139/2/6 140/2/6 142/2/6
f 141/1/6 138/1/6 142/1/6
f 138/2/6 139/2/6 142/2/6
f 135/2/6 141/2/6 143/2/6
f 141/2/6 142/2/6 143/2/6
f 142/2/6 140/2/6 144/2/6
f 143/2/6 142/2/6 144/2/6
f 135/2/6 143/2/6 145/2/6
f 145/2/6 143/2/6 146/2/6
f 146/2/6 143/2/6 147/2/6
f 147/2/6 143/2/6 148/2/6
f 144/2/6 140/2/6 149/2/6
f 149/2/6 140/2/6 150/2/6
f 150/2/6 140/2/6 151/2/6
f 151/2/6 140/2/6 152/2/6
f 145/1/6 146/1/6 153/1/6
f 146/2/6 147/2/6 154/2/6
f 153/1/6 146/1/6 154/1/6
f 147/1/6 148/1/6 155/1/6
f 154/2/6 147/2/6 155/2/6
f 148/2/6 143/2/6 156/2/6
f 155/1/6 148/1/6 156/1/6
f 144/2/6 149/2/6 157/2/6
f 149/1/6 150/1/6 157/1/6
f 150/2/6 151/2/6 158/2/6
f 157/1/6 150/1/6 158/1/6
f 151/1/6 152/1/6 159/1/6
f 158/2/6 151/2/6 159/2/6
f 159/1/6 152/1/6 160/1/6
f 154/2/6 155/2/6 161/2/6
f 143/1/6 144/1/6 161/1/6
f 153/2/6 154/2/6 161/2/6
f 156/2/6 143/2/6 161/2/6
f 155/2/6 156/2/6 161/2/6
f 159/2/6 160/2/6 162/2/6
f 161/1/6 144/1/6 162/1/6
f 158/2/6 159/2/6 162/2/6
f 144/2/6 157/2/6 162/2/6
f 157/2/6 158/2/6 162/2/6
f 153/2/6 161/2/6 163/2/6
f 161/2/6 162/2/6 163/2/6
f 162/2/6 160/2/6 164/2/6
f 163/2/6 162/2/6 164/2/6
f 153/2/6 163/2/6 165/2/6
f 165/2/6 163/2/6 166/2/6
f 163/1/6 164/1/6 167/1/6
f 166/2/6 163/2/6 167/2/6
f 164/2/6 160/2/6 168/2/6
f 167/1/6 164/1/6 168/1/6
f 168/2/6 160/2/6 169/2/6
f 169/2/6 160/2/6 170/2/6
f 166/2/6 167/2/6 171/2/6
f 168/2/6 169/2/6 171/2/6
f 167/2/6 168/2/6 171/2/6
f 171/2/6 169/2/6 172/2/6
f 166/2/6 171/2/6 173/2/6
f 171/1/6 172/1/6 174/1/6
f 173/2/6 171/2/6 174/2/6
f 172/2/6 169/2/6 175/2/6
f 174/1/6 172/1/6 175/1/6
f 175/2/6 169/2/6 176/2/6
f 177/3/6 178/3/6 181/3/6
f 181/3/6 178/3/6 182/3/6
f 179/3/6 180/3/6 183/3/6
f 183/3/6 180/3/6 184/3/6
f 185/3/6 186/3/6 189/3/6
f 189/3/6 186/3/6 190/3/6
f 187/3/6 188/3/6 191/3/6
f 191/3/6 188/3/6 192/3/6
