{
    "asset" : {
        "generator" : "Khronos glTF Blender I/O v3.3.36",
        "version" : "2.0"
    },
    "extensionsUsed" : [
        "KHR_materials_specular",
        "KHR_materials_ior"
    ],
    "scene" : 0,
    "scenes" : [
        {
            "name" : "Scene",
            "nodes" : [
                0,
                1,
                2,
                3,
                4
            ]
        }
    ],
    "nodes" : [
        {
            "mesh" : 0,
            "name" : "Wrench_Body"
        },
        {
            "mesh" : 1,
            "name" : "Wrench_Teeth_Bottom",
            "rotation" : [
                0,
                0,
                -0.09915997087955475,
                0.9950714707374573
            ],
            "translation" : [
                0.18889278173446655,
                1.0128730535507202,
                0
            ]
        },
        {
            "mesh" : 2,
            "name" : "Wrench_Teeth_Top",
            "translation" : [
                0.2183866798877716,
                1.235226035118103,
                0
            ]
        },
        {
            "mesh" : 3,
            "name" : "Wrench_Top",
            "translation" : [
                0,
                1.2609258890151978,
                0
            ]
        },
        {
            "mesh" : 4,
            "name" : "Wrench_Nut",
            "rotation" : [
                0,
                -1,
                0,
                1.6292069915380125e-07
            ],
            "scale" : [
                0.010285347700119019,
                0.013344113714993,
                0.010285347700119019
            ],
            "translation" : [
                -0.2944111227989197,
                0.5446540117263794,
                -0.003014317248016596
            ]
        }
    ],
    "materials" : [
        {
            "doubleSided" : true,
            "name" : "Wrench_Body",
            "pbrMetallicRoughness" : {
                "baseColorFactor" : [
                    0.8000000715255737,
                    0.01033859420567751,
                    0,
                    1
                ],
                "metallicFactor" : 0.5625,
                "roughnessFactor" : 0.390625
            }
        },
        {
            "doubleSided" : true,
            "extensions" : {
                "KHR_materials_specular" : {
                    "specularColorFactor" : [
                        0.3705246272564684,
                        0.3705246272564684,
                        0.3705246272564684
                    ]
                },
                "KHR_materials_ior" : {
                    "ior" : 1.4500000476837158
                }
            },
            "name" : "Wrench_Teeth",
            "pbrMetallicRoughness" : {
                "baseColorFactor" : [
                    0.30000922083854675,
                    0.3147892653942108,
                    0.33432257175445557,
                    1
                ],
                "metallicFactor" : 0.7421875,
                "roughnessFactor" : 0.1171875
            }
        },
        {
            "doubleSided" : true,
            "extensions" : {
                "KHR_materials_specular" : {
                    "specularColorFactor" : [
                        1.0004164935924647,
                        1.0004164935924647,
                        1.0004164935924647
                    ]
                },
                "KHR_materials_ior" : {
                    "ior" : 1.4500000476837158
                }
            },
            "name" : "Wrench_Top",
            "pbrMetallicRoughness" : {
                "baseColorFactor" : [
                    0.16794787347316742,
                    0.16794787347316742,
                    0.16794787347316742,
                    1
                ],
                "metallicFactor" : 0.4765625,
                "roughnessFactor" : 0.3984375
            }
        },
        {
            "doubleSided" : true,
            "extensions" : {
                "KHR_materials_specular" : {
                    "specularColorFactor" : [
                        0.3705246272564684,
                        0.3705246272564684,
                        0.3705246272564684
                    ]
                },
                "KHR_materials_ior" : {
                    "ior" : 1.4500000476837158
                }
            },
            "name" : "Wrench_Nut",
            "pbrMetallicRoughness" : {
                "baseColorFactor" : [
                    0.08897243440151215,
                    0.09308206290006638,
                    0.0985034853219986,
                    1
                ],
                "metallicFactor" : 0.390625,
                "roughnessFactor" : 0.2421875
            }
        }
    ],
    "meshes" : [
        {
            "name" : "Mesh",
            "primitives" : [
                {
                    "attributes" : {
                        "POSITION" : 0,
                        "NORMAL" : 1
                    },
                    "indices" : 2,
                    "material" : 0
                }
            ]
        },
        {
            "name" : "Cube.001",
            "primitives" : [
                {
                    "attributes" : {
                        "POSITION" : 3,
                        "NORMAL" : 4
                    },
                    "indices" : 5,
                    "material" : 1
                }
            ]
        },
        {
            "name" : "Cube.004",
            "primitives" : [
                {
                    "attributes" : {
                        "POSITION" : 6,
                        "NORMAL" : 7
                    },
                    "indices" : 8,
                    "material" : 1
                }
            ]
        },
        {
            "name" : "Cube.005",
            "primitives" : [
                {
                    "attributes" : {
                        "POSITION" : 9,
                        "NORMAL" : 10
                    },
                    "indices" : 11,
                    "material" : 2
                }
            ]
        },
        {
            "name" : "wrench-nut.002",
            "primitives" : [
                {
                    "attributes" : {
                        "POSITION" : 12,
                        "NORMAL" : 13
                    },
                    "indices" : 14,
                    "material" : 3
                }
            ]
        }
    ],
    "accessors" : [
        {
            "bufferView" : 0,
            "componentType" : 5126,
            "count" : 2478,
            "max" : [
                0.18889281153678894,
                1.0810770988464355,
                0.08598647266626358
            ],
            "min" : [
                -0.5224519371986389,
                -1.649254322052002,
                -0.08598647266626358
            ],
            "type" : "VEC3"
        },
        {
            "bufferView" : 1,
            "componentType" : 5126,
            "count" : 2478,
            "type" : "VEC3"
        },
        {
            "bufferView" : 2,
            "componentType" : 5123,
            "count" : 14856,
            "type" : "SCALAR"
        },
        {
            "bufferView" : 3,
            "componentType" : 5126,
            "count" : 378,
            "max" : [
                1.4901161193847656e-08,
                0.08370794355869293,
                0.096274733543396
            ],
            "min" : [
                -0.30843305587768555,
                -3.8370490074157715e-07,
                -0.096274733543396
            ],
            "type" : "VEC3"
        },
        {
            "bufferView" : 4,
            "componentType" : 5126,
            "count" : 378,
            "type" : "VEC3"
        },
        {
            "bufferView" : 5,
            "componentType" : 5123,
            "count" : 708,
            "type" : "SCALAR"
        },
        {
            "bufferView" : 6,
            "componentType" : 5126,
            "count" : 311,
            "max" : [
                1.4901161193847656e-08,
                0.08704796433448792,
                0.096274733543396
            ],
            "min" : [
                -0.30000126361846924,
                -3.6135315895080566e-07,
                -0.096274733543396
            ],
            "type" : "VEC3"
        },
        {
            "bufferView" : 7,
            "componentType" : 5126,
            "count" : 311,
            "type" : "VEC3"
        },
        {
            "bufferView" : 8,
            "componentType" : 5123,
            "count" : 726,
            "type" : "SCALAR"
        },
        {
            "bufferView" : 9,
            "componentType" : 5126,
            "count" : 460,
            "max" : [
                0.2108301818370819,
                0.2915315628051758,
                0.0912146270275116
            ],
            "min" : [
                -0.40643495321273804,
                -1.2826635837554932,
                -0.0912146270275116
            ],
            "type" : "VEC3"
        },
        {
            "bufferView" : 10,
            "componentType" : 5126,
            "count" : 460,
            "type" : "VEC3"
        },
        {
            "bufferView" : 11,
            "componentType" : 5123,
            "count" : 2538,
            "type" : "SCALAR"
        },
        {
            "bufferView" : 12,
            "componentType" : 5126,
            "count" : 7056,
            "max" : [
                15.280117988586426,
                6.368159294128418,
                15.234189987182617
            ],
            "min" : [
                -15.197279930114746,
                -6.332144260406494,
                -15.256244659423828
            ],
            "type" : "VEC3"
        },
        {
            "bufferView" : 13,
            "componentType" : 5126,
            "count" : 7056,
            "type" : "VEC3"
        },
        {
            "bufferView" : 14,
            "componentType" : 5123,
            "count" : 12162,
            "type" : "SCALAR"
        }
    ],
    "bufferViews" : [
        {
            "buffer" : 0,
            "byteLength" : 29736,
            "byteOffset" : 0,
            "target" : 34962
        },
        {
            "buffer" : 0,
            "byteLength" : 29736,
            "byteOffset" : 29736,
            "target" : 34962
        },
        {
            "buffer" : 0,
            "byteLength" : 29712,
            "byteOffset" : 59472,
            "target" : 34963
        },
        {
            "buffer" : 0,
            "byteLength" : 4536,
            "byteOffset" : 89184,
            "target" : 34962
        },
        {
            "buffer" : 0,
            "byteLength" : 4536,
            "byteOffset" : 93720,
            "target" : 34962
        },
        {
            "buffer" : 0,
            "byteLength" : 1416,
            "byteOffset" : 98256,
            "target" : 34963
        },
        {
            "buffer" : 0,
            "byteLength" : 3732,
            "byteOffset" : 99672,
            "target" : 34962
        },
        {
            "buffer" : 0,
            "byteLength" : 3732,
            "byteOffset" : 103404,
            "target" : 34962
        },
        {
            "buffer" : 0,
            "byteLength" : 1452,
            "byteOffset" : 107136,
            "target" : 34963
        },
        {
            "buffer" : 0,
            "byteLength" : 5520,
            "byteOffset" : 108588,
            "target" : 34962
        },
        {
            "buffer" : 0,
            "byteLength" : 5520,
            "byteOffset" : 114108,
            "target" : 34962
        },
        {
            "buffer" : 0,
            "byteLength" : 5076,
            "byteOffset" : 119628,
            "target" : 34963
        },
        {
            "buffer" : 0,
            "byteLength" : 84672,
            "byteOffset" : 124704,
            "target" : 34962
        },
        {
            "buffer" : 0,
            "byteLength" : 84672,
            "byteOffset" : 209376,
            "target" : 34962
        },
        {
            "buffer" : 0,
            "byteLength" : 24324,
            "byteOffset" : 294048,
            "target" : 34963
        }
    ],
    "buffers" : [
        {
            "byteLength" : 318372,
            "uri" : "data:application/octet-stream;base64,"
        }
    ]
}
